<svg width="64" height="72" viewBox="0 0 64 72" fill="none" xmlns="http://www.w3.org/2000/svg">
<path d="M63.8251 18.271V43.694C63.8251 53.7844 55.4047 61.9651 45.0187 61.9651H43.1165L33.4026 71.3963C33.0222 71.7659 32.4959 72 31.9126 72C31.3736 72 30.8854 71.809 30.5113 71.4887L30.3464 71.3285L30.3401 71.3224L20.7086 61.9651H18.8001C8.4204 61.9651 0 53.7844 0 43.694V18.271C0 8.1807 8.4204 0 18.8064 0H45.0187C55.4047 0 63.8251 8.1807 63.8251 18.271Z" fill="#E30815"/>
<path d="M48.3243 48.3002C50.1758 48.3032 51.2344 46.2552 50.1625 44.7734C45.9949 39.0015 39.0941 35.2316 31.29 35.219C23.486 35.2065 16.5795 38.9604 12.3933 44.7127C11.3167 46.191 12.3686 48.2424 14.2201 48.2454L48.3243 48.3002Z" fill="white"/>
<path d="M25.0742 26.4937H13.902V21.0196C13.902 17.9976 16.4044 15.5454 19.4881 15.5454C22.5718 15.5454 25.0742 17.9976 25.0742 21.0196V26.4937Z" fill="white"/>
<path d="M48.6692 26.4937H37.497V21.0196C37.497 17.9976 39.9994 15.5454 43.0831 15.5454C46.1668 15.5454 48.6692 17.9976 48.6692 21.0196V26.4937Z" fill="white"/>
</svg>
