<svg width="49" height="62" viewBox="0 0 49 62" fill="none" xmlns="http://www.w3.org/2000/svg">
<g filter="url(#filter0_i_50491_137)">
<path d="M24.5 0C10.9915 0 0.000249422 11.1259 0.000249422 24.7845C-0.0885622 44.764 23.569 61.3304 24.5 62C24.5 62 49.0886 44.764 48.9998 24.8C48.9998 11.1259 38.0086 0 24.5 0ZM24.5 37.2C17.7319 37.2 12.2501 31.651 12.2501 24.8C12.2501 17.949 17.7319 12.4 24.5 12.4C31.2681 12.4 36.7499 17.949 36.7499 24.8C36.7499 31.651 31.2681 37.2 24.5 37.2Z" fill="url(#paint0_linear_50491_137)"/>
</g>
<defs>
<filter id="filter0_i_50491_137" x="0" y="0" width="49" height="63" filterUnits="userSpaceOnUse" color-interpolation-filters="sRGB">
<feFlood flood-opacity="0" result="BackgroundImageFix"/>
<feBlend mode="normal" in="SourceGraphic" in2="BackgroundImageFix" result="shape"/>
<feColorMatrix in="SourceAlpha" type="matrix" values="0 0 0 0 0 0 0 0 0 0 0 0 0 0 0 0 0 0 127 0" result="hardAlpha"/>
<feOffset dy="1"/>
<feGaussianBlur stdDeviation="1"/>
<feComposite in2="hardAlpha" operator="arithmetic" k2="-1" k3="1"/>
<feColorMatrix type="matrix" values="0 0 0 0 0 0 0 0 0 0 0 0 0 0 0 0 0 0 0.25 0"/>
<feBlend mode="normal" in2="shape" result="effect1_innerShadow_50491_137"/>
</filter>
<linearGradient id="paint0_linear_50491_137" x1="24.5" y1="0" x2="24.5" y2="62" gradientUnits="userSpaceOnUse">
<stop stop-color="white"/>
</linearGradient>
</defs>
</svg>
